<?xml version="1.0" standalone="no"?>
<!DOCTYPE svg PUBLIC "-//W3C//DTD SVG 20010904//EN"
 "http://www.w3.org/TR/2001/REC-SVG-20010904/DTD/svg10.dtd">
<svg version="1.0" xmlns="http://www.w3.org/2000/svg"
 width="1200.000000pt" height="589.000000pt" viewBox="0 0 1200.000000 589.000000"
 preserveAspectRatio="xMidYMid meet">

<g transform="translate(0.000000,589.000000) scale(0.100000,-0.100000)"
fill="#000000" stroke="none">
<path d="M5052 3930 c-18 -29 -15 -38 4 -12 9 13 14 25 12 27 -2 2 -9 -5 -16
-15z"/>
<path d="M4997 3873 c3 -7 6 -13 8 -13 2 0 5 6 8 13 3 8 -1 14 -8 14 -7 0 -11
-6 -8 -14z"/>
<path d="M5015 3850 c-4 -6 -11 -7 -17 -4 -7 4 -8 2 -4 -5 4 -6 2 -18 -4 -26
-7 -8 -10 -15 -7 -15 3 0 15 14 27 30 12 17 19 30 16 30 -3 0 -8 -5 -11 -10z"/>
<path d="M4966 3823 c-6 -14 -5 -15 5 -6 7 7 10 15 7 18 -3 3 -9 -2 -12 -12z"/>
<path d="M4920 3710 c6 -11 13 -20 16 -20 2 0 0 9 -6 20 -6 11 -13 20 -16 20
-2 0 0 -9 6 -20z"/>
<path d="M4896 3697 c3 -10 9 -15 12 -12 3 3 0 11 -7 18 -10 9 -11 8 -5 -6z"/>
<path d="M4880 3675 c0 -8 4 -15 10 -15 5 0 7 7 4 15 -4 8 -8 15 -10 15 -2 0
-4 -7 -4 -15z"/>
<path d="M4906 3653 c-6 -14 -5 -15 5 -6 7 7 10 15 7 18 -3 3 -9 -2 -12 -12z"/>
<path d="M4870 3640 c0 -5 -6 -10 -13 -10 -18 0 -53 -27 -46 -35 4 -3 22 3 40
14 18 11 37 17 43 14 6 -4 5 1 -3 10 -15 19 -21 21 -21 7z"/>
<path d="M4848 3581 c-9 -15 -15 -17 -25 -9 -21 17 -15 -1 8 -25 16 -17 19
-18 13 -4 -4 12 -2 17 7 15 7 -2 13 2 14 7 0 6 4 16 8 23 5 7 4 12 -2 12 -6 0
-16 -9 -23 -19z"/>
<path d="M4775 3570 c-3 -5 1 -10 9 -10 9 0 16 5 16 10 0 6 -4 10 -9 10 -6 0
-13 -4 -16 -10z"/>
<path d="M4801 3538 c3 -27 -2 -38 -16 -38 -8 0 -14 -3 -13 -7 0 -5 -6 -24
-15 -43 -15 -33 -16 -34 -17 -9 0 28 -25 57 -38 45 -4 -4 1 -12 11 -17 10 -6
17 -22 17 -39 0 -16 5 -32 10 -35 6 -3 10 -12 10 -18 -1 -25 -30 28 -30 55 0
34 -6 35 -34 4 -11 -13 -45 -31 -73 -41 -29 -9 -53 -20 -53 -25 0 -5 23 -16
50 -25 28 -9 50 -18 50 -20 0 -1 -20 0 -45 3 -38 4 -50 0 -80 -22 -23 -18 -42
-25 -55 -21 -13 4 -25 -1 -37 -14 -12 -14 -29 -21 -55 -21 -30 0 -38 -4 -38
-18 0 -9 -9 -23 -19 -29 -19 -12 -20 -10 -16 50 l4 62 -19 -35 c-12 -24 -15
-40 -9 -52 13 -24 12 -48 -1 -28 -5 8 -10 11 -10 5 0 -5 5 -17 10 -25 7 -11
10 -11 10 -2 0 7 4 11 9 7 15 -9 -7 -62 -33 -78 -12 -9 -33 -17 -47 -19 -18
-2 -31 -17 -51 -58 -15 -30 -26 -61 -23 -68 3 -7 0 -10 -5 -7 -14 8 -13 -8 1
-22 8 -8 6 -11 -7 -10 -14 2 -18 -4 -16 -18 2 -11 0 -17 -4 -12 -8 7 -62 -83
-66 -112 -2 -9 -6 -18 -10 -21 -6 -5 -191 -378 -193 -390 -1 -3 -63 -129 -137
-280 -128 -259 -191 -360 -223 -360 -7 0 -23 8 -35 18 l-22 18 52 251 c28 138
53 260 55 270 18 86 65 325 65 331 0 4 -5 0 -11 -8 -9 -12 -10 -11 -6 8 5 22
-7 30 -18 12 -3 -5 -17 -10 -31 -10 -14 0 -23 -4 -20 -8 2 -4 -3 -9 -12 -10
-9 -1 -30 -4 -47 -6 -16 -2 -39 -4 -49 -5 -44 -3 -2 -14 49 -12 38 1 55 -3 55
-12 0 -6 6 -3 12 8 13 23 28 35 43 34 6 0 5 -3 -1 -5 -6 -3 -9 -16 -6 -30 l5
-25 -64 6 c-49 4 -58 3 -40 -5 23 -10 23 -11 6 -30 -29 -32 -62 -25 -56 13 0
4 -9 7 -21 7 -17 0 -19 -3 -10 -9 11 -7 10 -16 -6 -47 -27 -54 -75 -86 -134
-92 -58 -6 -64 -22 -8 -22 33 0 40 -3 40 -20 0 -17 -7 -20 -40 -20 -22 0 -40
-4 -40 -10 0 -5 -18 -10 -40 -10 -33 0 -40 -3 -40 -20 0 -14 -7 -20 -24 -20
-29 0 -49 -22 -40 -44 3 -9 1 -16 -5 -16 -6 0 -12 19 -13 43 l-1 42 -4 -40
c-3 -22 -11 -44 -19 -48 -8 -5 -11 -13 -8 -19 4 -6 2 -8 -4 -4 -6 3 -14 1 -17
-5 -4 -5 -13 -8 -21 -5 -7 3 -16 1 -20 -5 -4 -6 -12 -5 -22 3 -16 12 -16 11
-2 -7 8 -11 19 -23 25 -27 5 -4 10 -13 10 -20 0 -23 106 -208 116 -202 8 5 13
-10 10 -29 -3 -18 61 -117 71 -111 7 4 8 2 4 -4 -4 -7 23 -65 60 -129 91 -162
98 -174 162 -288 61 -111 83 -134 125 -135 47 0 63 16 120 118 30 53 129 232
222 397 92 165 215 386 272 490 58 105 122 219 143 255 66 114 260 467 260
473 0 3 11 23 25 43 14 21 23 44 20 51 -2 8 0 11 5 8 16 -10 25 26 9 37 -11 8
-10 9 4 4 18 -6 24 9 7 19 -5 3 -10 11 -10 18 0 6 6 2 14 -9 17 -23 13 -26 59
58 20 38 32 70 27 73 -6 4 -10 12 -9 18 0 9 2 9 6 0 2 -7 9 -13 15 -13 6 0 8
7 4 15 -7 19 3 45 16 45 6 0 5 -7 -2 -15 -7 -9 -10 -18 -7 -21 3 -3 13 9 22
26 9 18 12 29 6 26 -7 -4 -8 -1 -5 8 3 9 9 14 13 12 4 -3 14 9 23 25 10 16 13
29 8 29 -6 0 -10 -5 -10 -12 0 -6 -2 -9 -5 -6 -7 7 16 60 29 70 6 4 14 4 20 1
5 -4 6 -1 1 6 -4 8 1 18 14 27 17 13 19 18 8 34 -13 22 -29 27 -26 8z m-491
-289 c0 -11 -4 -18 -10 -14 -5 3 -7 12 -3 20 7 21 13 19 13 -6z m343 -41 c-10
-21 -10 -21 -9 9 1 19 5 28 10 23 6 -6 5 -18 -1 -32z m-36 -70 c-3 -7 -5 -2
-5 12 0 14 2 19 5 13 2 -7 2 -19 0 -25z m-372 -68 c3 -5 1 -10 -4 -10 -6 0
-11 5 -11 10 0 6 2 10 4 10 3 0 8 -4 11 -10z m-41 -34 c-3 -15 -8 -25 -11 -23
-2 3 -1 17 3 31 3 15 8 25 11 23 2 -3 1 -17 -3 -31z m-660 -540 c-3 -15 -8
-25 -11 -23 -2 3 -1 17 3 31 3 15 8 25 11 23 2 -3 1 -17 -3 -31z m27 3 c-5
-13 -10 -19 -10 -12 -1 15 10 45 15 40 3 -2 0 -15 -5 -28z m-556 -449 c3 -6
-1 -7 -9 -4 -18 7 -21 14 -7 14 6 0 13 -4 16 -10z"/>
<path d="M4720 3530 c0 -5 7 -10 15 -10 8 0 15 5 15 10 0 6 -7 10 -15 10 -8 0
-15 -4 -15 -10z"/>
<path d="M9409 3500 c-14 -3 -26 -16 -30 -30 -11 -39 -10 -1193 1 -1210 8 -13
71 -15 446 -18 381 -2 440 -1 460 13 23 15 24 20 24 149 0 116 -2 135 -18 149
-16 15 -50 17 -275 17 l-257 0 0 80 0 80 188 0 c103 0 194 5 202 10 20 13 22
262 2 282 -9 10 -64 14 -202 16 l-190 3 0 70 0 69 259 0 c223 0 262 2 275 16
13 12 16 41 16 145 0 189 49 171 -460 167 -230 -2 -429 -5 -441 -8z m751 -160
c0 -6 -103 -10 -290 -10 l-290 0 0 -220 0 -220 215 0 c137 0 215 -4 215 -10 0
-6 -78 -10 -215 -10 l-215 0 0 -225 0 -225 284 0 c179 0 287 -4 291 -10 4 -7
-97 -10 -294 -10 l-301 0 0 475 0 475 300 0 c193 0 300 -4 300 -10z"/>
<path d="M8955 3490 c44 -3 64 -7 45 -8 -19 -1 -42 -7 -50 -12 -13 -9 -13 -11
0 -20 13 -9 13 -11 0 -20 -8 -5 -27 -10 -42 -10 -16 0 -28 -4 -28 -10 0 -5
-15 -10 -32 -11 -31 -1 -32 -1 -8 -9 17 -6 2 -8 -52 -9 -45 -1 -78 -5 -78 -11
0 -6 55 -10 143 -11 179 -1 179 -1 184 -16 4 -10 -36 -13 -176 -13 l-181 0 0
-465 c0 -256 -4 -465 -8 -465 -11 0 -22 294 -23 634 0 149 -3 265 -6 259 -3
-9 -28 -13 -71 -14 -52 -1 -60 -3 -37 -9 28 -7 28 -8 5 -9 -20 -1 -22 -3 -10
-11 8 -5 10 -10 5 -10 -6 0 -16 5 -22 11 -8 8 -13 8 -17 0 -4 -6 -37 -11 -74
-12 -49 -1 -60 -3 -42 -9 21 -7 18 -8 -20 -10 -31 -2 -37 -4 -20 -8 23 -4 21
-6 -15 -17 -39 -12 -37 -13 54 -14 l93 -1 -3 -456 c-4 -446 -4 -456 16 -470
16 -12 53 -15 192 -12 94 2 175 7 180 11 4 5 10 214 13 465 l5 457 141 0 c105
0 145 4 157 14 14 11 17 34 17 145 -1 93 -4 136 -14 149 -12 15 -30 17 -157
15 -127 -1 -134 -2 -64 -8z m-48 -106 c-3 -3 -12 -4 -19 -1 -8 3 -5 6 6 6 11
1 17 -2 13 -5z m-177 -74 c-19 -13 -30 -13 -30 0 0 6 10 10 23 10 18 0 19 -2
7 -10z m98 3 c-16 -2 -40 -2 -55 0 -16 2 -3 4 27 4 30 0 43 -2 28 -4z m-388
-93 c-19 -13 -30 -13 -30 0 0 6 10 10 23 10 18 0 19 -2 7 -10z"/>
<path d="M4776 3434 c-5 -14 -4 -15 9 -4 17 14 19 20 6 20 -5 0 -12 -7 -15
-16z"/>
<path d="M4363 3414 c4 -6 2 -26 -3 -44 -5 -19 -8 -36 -6 -38 3 -2 9 13 15 34
8 28 7 41 -1 49 -7 7 -9 7 -5 -1z"/>
<path d="M8778 3393 c7 -3 16 -2 19 1 4 3 -2 6 -13 5 -11 0 -14 -3 -6 -6z"/>
<path d="M8608 3363 c6 -2 18 -2 25 0 6 3 1 5 -13 5 -14 0 -19 -2 -12 -5z"/>
<path d="M8668 3363 c7 -3 16 -2 19 1 4 3 -2 6 -13 5 -11 0 -14 -3 -6 -6z"/>
<path d="M4381 3344 c0 -11 3 -14 6 -6 3 7 2 16 -1 19 -3 4 -6 -2 -5 -13z"/>
<path d="M4457 3339 c7 -7 15 -10 18 -7 3 3 -2 9 -12 12 -14 6 -15 5 -6 -5z"/>
<path d="M8360 3323 c132 -7 290 -7 290 0 0 4 -78 6 -172 5 -95 -1 -148 -3
-118 -5z"/>
<path d="M8560 3300 c-20 -6 -15 -8 25 -9 36 0 46 2 35 9 -17 11 -25 11 -60 0z"/>
<path d="M8488 3293 c6 -2 18 -2 25 0 6 3 1 5 -13 5 -14 0 -19 -2 -12 -5z"/>
<path d="M8453 3273 c9 -2 25 -2 35 0 9 3 1 5 -18 5 -19 0 -27 -2 -17 -5z"/>
<path d="M8150 3200 c0 -5 5 -10 11 -10 5 0 7 5 4 10 -3 6 -8 10 -11 10 -2 0
-4 -4 -4 -10z"/>
<path d="M4257 3170 c-3 -13 0 -20 8 -20 7 0 12 7 11 15 -4 24 -13 27 -19 5z"/>
<path d="M8188 3183 c7 -3 16 -2 19 1 4 3 -2 6 -13 5 -11 0 -14 -3 -6 -6z"/>
<path d="M8238 3183 c7 -3 16 -2 19 1 4 3 -2 6 -13 5 -11 0 -14 -3 -6 -6z"/>
<path d="M7572 2718 l-2 -298 136 0 c102 0 135 -3 132 -12 -3 -9 -76 -13 -286
-16 -249 -2 -282 -1 -282 13 0 13 20 15 138 15 l137 0 -3 206 c-2 176 -5 205
-17 200 -10 -3 -15 1 -16 12 0 14 -3 13 -16 -5 -9 -13 -26 -23 -39 -23 -18 0
-24 -6 -25 -22 -1 -19 -3 -17 -9 7 -7 28 -8 29 -10 5 -1 -22 -2 -23 -9 -6 -7
18 -8 18 -14 2 -4 -10 -8 -39 -9 -64 -1 -26 -5 18 -8 98 l-6 145 -2 -202 -2
-203 -104 0 c-140 0 -136 5 -136 -165 0 -127 1 -135 22 -149 19 -14 76 -16
420 -16 347 0 399 2 412 16 13 12 16 41 16 149 0 169 3 165 -129 165 l-98 0
-7 31 c-3 17 -7 109 -7 203 -1 102 -5 157 -9 136 -8 -36 -9 -37 -15 -7 -7 38
-15 29 -17 -19 l-1 -49 -7 45 c-4 25 -8 35 -8 24 -3 -29 -26 -47 -52 -39 -17
5 -24 -1 -40 -37 l-19 -43 -3 100 c-2 55 -5 -34 -6 -197z"/>
<path d="M3505 2630 c-13 -5 -14 -9 -5 -9 8 0 24 4 35 9 13 5 14 9 5 9 -8 0
-24 -4 -35 -9z"/>
<path d="M3458 2613 c7 -3 16 -2 19 1 4 3 -2 6 -13 5 -11 0 -14 -3 -6 -6z"/>
<path d="M6786 2565 c-16 -37 -32 -48 -23 -16 3 11 -1 22 -8 25 -10 4 -11 -2
-4 -26 11 -39 3 -50 -10 -14 -6 14 -12 26 -15 26 -6 0 -2 -34 5 -40 4 -3 9
-16 13 -30 6 -23 6 -24 -7 -7 -13 16 -15 16 -21 1 -4 -11 -12 -14 -24 -9 -9 4
-22 9 -29 12 -6 2 -14 -5 -18 -16 -8 -28 -19 -26 -35 4 -17 31 -22 31 -36 0
-7 -13 -9 -23 -5 -22 3 1 6 -2 6 -8 0 -5 -5 -10 -12 -10 -6 0 -15 -4 -19 -8
-4 -4 -3 -7 3 -7 6 0 10 -10 9 -22 -1 -26 -27 -31 -34 -8 -5 13 -3 13 13 0 15
-13 17 -13 14 -1 -7 20 -25 24 -39 9 -9 -9 -38 -12 -102 -10 -50 2 -94 0 -99
-5 -4 -4 14 -6 41 -5 41 3 50 1 50 -12 0 -11 -10 -16 -32 -17 -42 -1 -93 -16
-63 -18 14 -1 8 -7 -20 -20 -23 -11 -44 -15 -49 -10 -18 16 -61 10 -74 -11
-11 -19 -10 -20 46 -15 43 3 53 1 38 -7 -10 -6 -40 -8 -67 -6 -27 3 -49 2 -49
-2 0 -22 477 -29 520 -7 28 14 61 73 56 100 -2 9 -1 15 4 12 4 -3 19 26 33 63
14 37 34 91 46 120 23 57 20 73 -3 17z m-176 -105 c0 -5 -4 -10 -9 -10 -6 0
-13 5 -16 10 -3 6 1 10 9 10 9 0 16 -4 16 -10z m-163 -86 c-3 -3 -12 -4 -19
-1 -8 3 -5 6 6 6 11 1 17 -2 13 -5z"/>
<path d="M3390 2560 c8 -5 24 -9 35 -9 l20 0 -20 9 c-11 5 -27 9 -35 9 -13 1
-13 0 0 -9z"/>
<path d="M6606 2553 c-6 -14 -5 -15 5 -6 7 7 10 15 7 18 -3 3 -9 -2 -12 -12z"/>
<path d="M3318 2553 c7 -3 16 -2 19 1 4 3 -2 6 -13 5 -11 0 -14 -3 -6 -6z"/>
<path d="M3290 2540 c8 -5 20 -10 25 -10 6 0 3 5 -5 10 -8 5 -19 10 -25 10 -5
0 -3 -5 5 -10z"/>
<path d="M6616 2532 c-3 -5 1 -9 9 -9 8 0 12 4 9 9 -3 4 -7 8 -9 8 -2 0 -6 -4
-9 -8z"/>
<path d="M6506 2466 c4 -16 2 -26 -5 -26 -6 0 -11 7 -11 15 0 13 -2 14 -14 3
-12 -11 -11 -14 3 -20 25 -10 30 -9 40 10 6 12 5 21 -5 30 -13 12 -14 10 -8
-12z"/>
<path d="M6353 2423 c26 -2 67 -2 90 0 23 2 2 3 -48 3 -49 0 -68 -1 -42 -3z"/>
<path d="M2804 2362 c4 -3 14 -7 22 -8 9 -1 13 0 10 4 -4 3 -14 7 -22 8 -9 1
-13 0 -10 -4z"/>
<path d="M2840 2300 c6 -11 13 -20 16 -20 2 0 0 9 -6 20 -6 11 -13 20 -16 20
-2 0 0 -9 6 -20z"/>
<path d="M6084 2272 c11 -12 24 -22 29 -22 6 0 7 3 4 7 -4 3 1 12 11 19 16 12
16 13 0 14 -9 0 -18 -6 -21 -12 -3 -10 -8 -10 -23 2 -19 14 -19 14 0 -8z"/>
<path d="M2880 2241 c0 -4 3 -11 8 -15 4 -4 7 -12 7 -17 0 -5 5 -9 10 -10 6 0
15 -4 20 -9 6 -4 15 -2 22 5 9 10 8 17 -3 31 -14 18 -15 18 -9 -3 5 -18 3 -22
-9 -17 -9 3 -16 12 -16 19 0 7 -7 15 -15 19 -8 3 -15 2 -15 -3z"/>
</g>
</svg>
